# xmcd
# 
# Track frame offsets:
#     150
#     12703
#     24928
#     37670
#     49144
#     61076
#     79627
#     96773
#     110848
#     130372
#     145528
#     157675
#     170611
#     179125
#     203077
# 
# Disc length: 2878
# 
# Revision: 0
# Processed by: cddbd v1.5.2PL0 Copyright (c) Steve Scherf et al.
# Submitted via: fre:ac v1.0.17
# 
DISCID=bf0b3c0f
DTITLE=T-Bone Walker - T-Bone Blues
DYEAR=1959
DGENRE=Blues
TTITLE0=Papa Ain't Salty
TTITLE1=Why Not
TTITLE2=T-Bone Shuffle
TTITLE3=Play On Little Girl
TTITLE4=T-Bone Blues Special
TTITLE5=Mean Old World
TTITLE6=T-Bone Blues
TTITLE7=Stormy Monday Blues
TTITLE8=Blues For Marili
TTITLE9=Shufflin' The Blues
TTITLE10=Evenin'
TTITLE11=Two Bones And A Pick
TTITLE12=You Don't Know What You're Doing
TTITLE13=How Long Blues
TTITLE14=Blues Rock
EXTD=
EXTT0=
EXTT1=
EXTT2=
EXTT3=
EXTT4=
EXTT5=
EXTT6=
EXTT7=
EXTT8=
EXTT9=
EXTT10=
EXTT11=
EXTT12=
EXTT13=
EXTT14=
PLAYORDER=
